<svg id="Layer_3" enable-background="new 0 0 64 64" height="512" viewBox="0 0 64 64" width="512" xmlns="http://www.w3.org/2000/svg"><g><g><path d="m41 47.998h-1v-2h1c1.102 0 1.999-.896 1.999-1.998 0-1.104-.897-2.001-1.999-2.001h-1v-2h1c2.205 0 3.999 1.794 3.999 4 0 2.205-1.794 3.999-3.999 3.999z" fill="#d5cec2"/></g><path d="m13.727 54.547 2.273-4.547h-8l2.273 4.547z" fill="#a8b0bc"/><path d="m35.727 54.547 2.273-4.547h-8l2.273 4.547z" fill="#a8b0bc"/><path d="m6 46h34v4h-34z" fill="#758190"/><path d="m6 46h34v2h-34z" fill="#8892a0"/><g><path d="m43.689 19.652-1.961-.392 2.291-11.458c.093-.467.503-.804.981-.804h7v2h-6.18z" fill="#e7e4dd"/></g><path d="m15.001 18.002c-1.256-1.671-2.001-3.75-2.001-6.002 0-5.523 4.477-10 10-10s10 4.477 10 10c0 2.252-.745 4.331-2.001 6.002" fill="#f2c351"/><path d="m24 10.999v-4c1.102 0 1.999.896 1.999 2h2c0-2.206-1.794-4-3.999-4v-1l-2-.001v1.001c-2.206 0-4 1.794-4 4.001 0 2.204 1.794 3.998 4 3.998v4c-1.103 0-2-.896-2-1.998h-2c0 2.204 1.794 3.998 4 3.998h2c2.205 0 3.999-1.794 3.999-4 0-2.205-1.794-3.999-3.999-3.999zm-2 0c-1.103 0-2-.897-2-2 0-1.104.897-2 2-2zm2 5.999-.001-4h.001c1.102 0 1.999.898 1.999 2.002 0 1.102-.897 1.998-1.999 1.998z" fill="#f7d881"/><path d="m7 22 3 16h26l3-16z" fill="#e7e4dd"/><path d="m7 22 3 16h26l3-16z" fill="#e7e4dd"/><path d="m2 18 4 24h34l4-24zm32 10.999v-2.001h4.063l-.375 2.001zm3.313 1.999-.375 2.001h-2.938v-2.001zm-28.626 0h3.313v2.001h-2.938zm-.375-1.999-.375-2.001h4.063v2.001zm20.688 0v-2.001h3v2.001zm3 1.999v2.001h-3v-2.001zm-8.001-1.999v-2.001h3.001v2.001zm3.001 1.999v2.001h-3.001v-2.001zm-3.001-5.999v-2.999h3.001v2.999zm-4.999 4v-2.001h3v2.001zm3 1.999v2.001h-3v-2.001zm-3-5.999v-2.999h3v2.999zm-5.001 4v-2.001h3.001v2.001zm3.001 1.999v2.001h-3.001v-2.001zm-3.001-5.999v-2.999h3.001v2.999zm3.001 9.999v3.002h-3.001v-3.002zm2 0h3v3.002h-3zm4.999 0h3.001v3.002h-3.001zm5.001 0h3v3.002h-3zm0-9.999v-2.999h3v2.999zm-17-2.999v2.999h-4.438l-.562-2.999zm-2.563 12.998h2.563v3.002h-2zm24.563 3.002v-3.002h2.563l-.563 3.002zm4.438-13.001h-4.438v-2.999h5z" fill="#8892a0"/><path d="m60 10h-7c-.552 0-1-.448-1-1v-2c0-.552.448-1 1-1h7c1.105 0 2 .895 2 2 0 1.105-.895 2-2 2z" fill="#758190"/><circle cx="12" cy="58" fill="#606060" r="4"/><circle cx="34" cy="58" fill="#606060" r="4"/><g><path d="m12 59.998c-1.103 0-2-.896-2-1.999 0-1.104.897-2 2-2s2 .896 2 2c-.001 1.103-.898 1.999-2 1.999z" fill="#d5cec2"/></g><g><path d="m34 59.998c-1.103 0-2-.896-2-1.999 0-1.104.897-2 2-2s2 .896 2 2c-.001 1.103-.898 1.999-2 1.999z" fill="#d5cec2"/></g><path d="m60 6h-7c-.552 0-1 .448-1 1v2c0 .552.448 1 1 1h5.279c1.15-1.013 2.004-2.347 2.424-3.866-.219-.083-.455-.134-.703-.134z" fill="#8892a0"/></g></svg>